HIERARCHY
ROOT Hips
{
    OFFSET 0.0 0.0 0.0
    CHANNELS 6 Xposition Yposition Zposition Zrotation Xrotation Yrotation
    JOINT LHipJoint
    {
        OFFSET 0.1 0.0 0.0
        CHANNELS 3 Zrotation Xrotation Yrotation
        JOINT LeftHip
        {
            OFFSET 0.039829742163419724 0.0 0.0
            CHANNELS 3 Zrotation Xrotation Yrotation
            JOINT LeftKnee
            {
                OFFSET 0.0 0.0 -0.509194016456604
                CHANNELS 3 Zrotation Xrotation Yrotation
                JOINT LeftAnkle
                {
                    OFFSET 0.0 0.0 -0.36382007598876953
                    CHANNELS 3 Zrotation Xrotation Yrotation
                    End Site
                    {
                        OFFSET 0.0 -0.1 0.0
                    }
                }
            }
        }
    }
    JOINT lowerback
    {
        OFFSET 0.0 0.0 0.1
        CHANNELS 3 Zrotation Xrotation Yrotation
        JOINT Chest
        {
            OFFSET 0.0 0.0 0.22843974828720093
            CHANNELS 3 Zrotation Xrotation Yrotation
            JOINT Chest2
            {
                OFFSET 0.0 0.0 0.2604352831840515
                CHANNELS 3 Zrotation Xrotation Yrotation
                JOINT LeftCollar
                {
                    OFFSET 0.1 0.0 0.0
                    CHANNELS 3 Zrotation Xrotation Yrotation
                    JOINT LeftShoulder
                    {
                        OFFSET 0.08644933998584747 0.0 0.0
                        CHANNELS 3 Zrotation Xrotation Yrotation
                        JOINT LeftElbow
                        {
                            OFFSET 0.2282620668411255 0.0 0.0
                            CHANNELS 3 Zrotation Xrotation Yrotation
                            JOINT LeftWrist
                            {
                                OFFSET 0.1391773819923401 0.0 0.0
                                CHANNELS 3 Zrotation Xrotation Yrotation
                                End Site
                                {
                                    OFFSET 0.1 0.0 0.0
                                }
                            }
                        }
                    }
                }
                JOINT Neck
                {
                    OFFSET 0.0 0.0 0.1
                    CHANNELS 3 Zrotation Xrotation Yrotation
                    JOINT Head
                    {
                        OFFSET 0.0 0.0 0.11641473323106766
                        CHANNELS 3 Zrotation Xrotation Yrotation
                        End Site
                        {
                            OFFSET 0.0 0.0 0.14083035290241241
                        }
                    }
                }
                JOINT RightCollar
                {
                    OFFSET -0.1 0.0 0.0
                    CHANNELS 3 Zrotation Xrotation Yrotation
                    JOINT RightShoulder
                    {
                        OFFSET -0.08644933998584747 0.0 0.0
                        CHANNELS 3 Zrotation Xrotation Yrotation
                        JOINT RightElbow
                        {
                            OFFSET -0.2282620668411255 0.0 0.0
                            CHANNELS 3 Zrotation Xrotation Yrotation
                            JOINT RightWrist
                            {
                                OFFSET -0.1391773819923401 0.0 0.0
                                CHANNELS 3 Zrotation Xrotation Yrotation
                                End Site
                                {
                                    OFFSET -0.1 0.0 0.0
                                }
                            }
                        }
                    }
                }
            }
        }
    }
    JOINT RHipJoint
    {
        OFFSET -0.1 0.0 0.0
        CHANNELS 3 Zrotation Xrotation Yrotation
        JOINT RightHip
        {
            OFFSET -0.039829742163419724 0.0 0.0
            CHANNELS 3 Zrotation Xrotation Yrotation
            JOINT RightKnee
            {
                OFFSET 0.0 0.0 -0.509194016456604
                CHANNELS 3 Zrotation Xrotation Yrotation
                JOINT RightAnkle
                {
                    OFFSET 0.0 0.0 -0.36382007598876953
                    CHANNELS 3 Zrotation Xrotation Yrotation
                    End Site
                    {
                        OFFSET 0.0 -0.1 0.0
                    }
                }
            }
        }
    }
}
MOTION
Frames: 7
Frame Time: 0.03333333333333333
-1.635308944969438e-05 0.9582004547119141 -3.074810956604779e-05 -137.21034181876018 -79.94249372113244 -138.0522118895302 1.1927080055488186e-15 -6.361109362927033e-15 6.620859447075238e-32 -6.822546438461909 -12.39840114555932 4.412590706708197 -6.61012748503777 -9.857661648733528 6.111475354821796 0.0 6.361109362927032e-15 0.0 1.1927080055488186e-15 -6.361109362927033e-15 6.620859447075238e-32 -4.017650628382303 -7.355353418841351 2.7019129368910204 9.750968194611918 -3.057459501110987e-06 1.5002693186160293e-07 0.0 -6.3548973420648005e-15 0.0 -70.02277521924947 -19.06859952071097 -48.54801841099456 -15.797362298090404 3.618559378888035e-06 -2.908088898461757e-07 -2.782985346280577e-15 3.1805546814635168e-15 7.724336021587778e-32 0.0 -6.3548973420648005e-15 0.0 -17.885649514777633 10.078368735738724 4.755766032741948 0.0 -6.3548973420648005e-15 0.0 -102.0312014701104 -59.29074661302243 -83.31059017664882 49.078586340612766 -9.731636016481177e-07 -1.313536184366773e-07 1.987846675914698e-16 0.0 0.0 1.1927080055488186e-15 -6.361109362927033e-15 6.620859447075238e-32 -4.145830617839177 -7.557535558113032 -2.005233675545965 -1.0607092962534677 -2.09118299288573 -8.943225205337038 2.2363275104040355e-15 7.758819664541294e-33 3.975693351829397e-16
-1.5157602319959551e-05 0.9581988453865051 -3.031697269761935e-05 -128.72741283720748 -78.26387972211332 -129.20892715970814 7.951386703658791e-16 4.969616689786744e-17 -7.951386703658791e-16 -7.102299357644139 -12.273635801962163 3.384795480351147 -7.050287655641208 -10.408950336916009 5.717291632740999 -1.5902773407317582e-15 0.0 0.0 7.951386703658791e-16 4.969616689786744e-17 -7.951386703658791e-16 -4.240034114811018 -7.378361402106041 1.4845264713715431 11.926357780722887 5.384749902931627e-06 1.0682263662467837e-07 0.0 0.0 0.0 -75.95341637223709 -23.47240427459191 -51.05551578833829 -25.20099923012219 4.477737782057751e-07 -4.840598159974179e-07 1.5902773407317584e-15 0.0 0.0 0.0 0.0 0.0 -18.729168667037285 9.775710556831413 5.140829884896137 0.0 0.0 0.0 -92.508720194037 -52.7776688267515 -75.52955050747742 55.733353227864555 8.423788894739431e-07 -1.1937895676705296e-06 -2.882377680076312e-15 8.000205165215913e-32 -3.1805546814635168e-15 7.951386703658791e-16 4.969616689786744e-17 -7.951386703658791e-16 -3.659409248569963 -6.351855319619968 -2.0589504250054134 -1.2503420178531122 -2.3507904265006556 -9.859241807267919 5.466578358765419e-16 6.3611093629270335e-15 8.448348372637467e-16
-1.706166221993044e-05 0.958197295665741 -3.117469896096736e-05 -127.03775323567578 -77.88923453354374 -126.81886386504569 -7.951386703658792e-16 6.3611093629270335e-15 7.951386703658792e-16 -7.667618322289094 -12.388174485930012 2.0114678845965828 -7.0191070406756735 -10.225299973377268 6.07227085835328 0.0 0.0 3.1805546814635164e-15 -7.951386703658792e-16 6.3611093629270335e-15 7.951386703658792e-16 -4.416088195392717 -7.190985660878246 0.3482284833192902 12.447016444288872 -4.792377643779144e-06 1.683632030651824e-07 0.0 0.0 0.0 -85.95345283143854 -30.409615712006957 -55.16838586449364 -42.92132370787827 4.373133164826405e-07 -1.158666076713104e-06 1.5902773407317584e-15 -4.4139062980501586e-32 -3.1805546814635168e-15 0.0 0.0 0.0 -19.528884049020483 8.48566894896562 5.443623473972469 0.0 0.0 0.0 -82.94962372230523 -45.29500153516138 -67.79265905883834 60.864734863328934 7.807559458639128e-07 8.934827053701785e-07 -3.379339349054986e-15 1.9878466759146977e-16 5.862219302097867e-33 -7.951386703658792e-16 6.3611093629270335e-15 7.951386703658792e-16 -3.6967586842389584 -6.004769666172258 -2.0317730828601586 -1.4372467527694581 -2.5197947139665766 -10.869807133584537 -6.957463365701444e-16 -6.3362612794781e-15 -1.3914926731402886e-15
-1.6371548554161564e-05 0.958196759223938 -3.112274862360209e-05 -119.26545978865197 -76.01329023169522 -118.45210152156623 0.0 9.939233379573489e-17 0.0 -8.563236707854395 -12.87394997577918 0.22129884360482927 -6.9651386534483954 -10.089416407216941 6.474540570045601 0.0 3.975693351829397e-16 0.0 0.0 9.939233379573489e-17 0.0 -5.170788243213456 -7.838332303928949 -1.6871850394906134 14.477330676978317 5.412261696726627e-06 1.3205743410353145e-07 -3.9756933518293955e-16 -6.3642153733581485e-15 -2.2080307628673766e-32 -95.97444980833386 -35.29157445560266 -60.57316713662807 -73.3777468552185 -1.4995890389506808e-06 -2.558060299271714e-06 -2.782985346280577e-15 -7.724336021587778e-32 3.1805546814635168e-15 -3.9756933518293955e-16 -6.3642153733581485e-15 -2.2080307628673766e-32 -18.38317413716524 7.40677546253758 5.210634950368455 -3.9756933518293955e-16 -6.3642153733581485e-15 -2.2080307628673766e-32 -75.98881763804606 -37.66550220345705 -64.57291833958057 65.81904146198433 5.527398125635543e-07 -4.934406520012405e-07 9.93923337957349e-17 0.0 0.0 0.0 9.939233379573489e-17 0.0 -4.079264920209646 -6.171318444177392 -2.4104164053029047 -1.0443612459337634 -1.7274375103028459 -12.107856225666593 7.951386703658792e-16 -4.969616689786745e-17 1.987846675914698e-16
-1.782742765499279e-05 0.9581955671310425 -3.1486408261116594e-05 -116.17671918872055 -74.92474021332794 -115.25717166626444 1.3793457181406746e-33 -9.93923337957349e-17 1.5902773407317584e-15 -8.995064742212458 -12.833073327142712 -0.8903207185914781 -7.881559780233816 -11.244261749321213 6.318605738400234 1.5902773407317584e-15 -6.3611093629270335e-15 8.827812596100317e-32 1.3793457181406746e-33 -9.93923337957349e-17 1.5902773407317584e-15 -5.428147845101614 -7.808156984823587 -2.3803054026901407 15.015807557478976 1.515100449749142e-06 1.213469720442671e-07 0.0 0.0 -3.9756933518293945e-16 -101.68493901571107 -37.33915760003646 -64.9213857546846 -116.92306611812562 2.620759496431775e-06 1.4955301340067546e-06 3.975693351829396e-16 -3.4483642953516864e-34 -9.93923337957349e-17 0.0 0.0 -3.9756933518293945e-16 -17.175186357324655 5.217621073504412 5.144498534176272 0.0 0.0 -3.9756933518293945e-16 -63.82450782419027 -26.48925846667106 -58.92024326441785 60.869101202002994 1.8998712215351517e-06 -1.1346085612937268e-06 -2.981770013872047e-16 0.0 0.0 1.3793457181406746e-33 -9.93923337957349e-17 1.5902773407317584e-15 -3.9147586297439414 -5.621182753931754 -1.9508746679212807 -1.4456001886886423 -2.22733164463635 -13.721572356294812 -9.939233379573492e-16 -6.3611093629270335e-15 -1.7890620083232284e-15
-2.0312581909820437e-05 0.9581959247589111 -3.266696148784831e-05 -113.770069674614 -74.43266218883572 -112.77683418728297 7.951386703658792e-16 6.2617170291312985e-15 -4.344939012143125e-32 -9.055592954788223 -12.989139153550994 -1.4672612187458547 -8.39862750038283 -12.27064142501625 5.570496733493633 -1.5902773407317582e-15 -6.3611093629270335e-15 3.1805546814635168e-15 7.951386703658792e-16 6.2617170291312985e-15 -4.344939012143125e-32 -5.727175377358622 -8.277961731204437 -3.171269206886119 16.151050931467218 -1.07556532188441e-06 3.0031976807789746e-06 3.975693351829395e-16 -1.3793457181406746e-33 -3.975693351829395e-16 -101.01184286058091 -35.59103940595882 -65.6477998158225 -136.6989335138056 -2.8131249309932133e-06 2.1758573073235946e-06 0.0 0.0 1.3914926731402884e-15 3.975693351829395e-16 -1.3793457181406746e-33 -3.975693351829395e-16 -16.35878067384339 4.279370904356523 6.4533126809543875 3.975693351829395e-16 -1.3793457181406746e-33 -3.975693351829395e-16 -48.51166747910086 -14.18740895849894 -55.317942472185315 50.169337488015756 -2.4083350698852324e-06 2.7849251413861613e-06 -7.951386703658792e-16 1.987846675914698e-16 1.3793457181406746e-33 7.951386703658792e-16 6.2617170291312985e-15 -4.344939012143125e-32 -3.481330999059264 -5.030214800789687 -1.047363940465209 -1.9507744780838723 -2.924125822839773 -15.207033850633637 -1.9878466759146985e-16 -6.4605016967227685e-15 -7.951386703658792e-16
-2.2638996597379446e-05 0.9581965804100037 -3.371329512447119e-05 -113.4818028033293 -74.68092828903465 -112.78212405976842 0.0 6.3611093629270335e-15 0.0 -9.54323236141017 -13.589655324844085 -1.594791131932919 -8.974457317430995 -13.02169394888344 4.5860058745242664 -1.5902773407317582e-15 6.3611093629270335e-15 -3.1805546814635168e-15 0.0 6.3611093629270335e-15 0.0 -5.726611028403631 -8.234321184923438 -3.157605830747237 15.859594871320484 -1.4226523984248112e-06 9.912855544832957e-07 -2.2069531490250793e-32 -6.361109362927035e-15 -3.975693351829397e-16 -101.41681856545223 -33.73388201090822 -67.40021697527618 -145.62708580340788 -4.2710999270712205e-07 -8.505732713936845e-07 -1.4908850069360232e-16 7.951386703658792e-16 -3.1308585145656493e-15 -2.2069531490250793e-32 -6.361109362927035e-15 -3.975693351829397e-16 -15.576225054654747 3.2242102320012136 7.901621809673132 -2.2069531490250793e-32 -6.361109362927035e-15 -3.975693351829397e-16 -16.12652608993975 7.6659482733330915 -56.33494998461365 38.59982231541642 4.0973380710311276e-07 -4.519831624259068e-06 3.1805546814635176e-15 -6.361109362927035e-15 1.7655625192200634e-31 0.0 6.3611093629270335e-15 0.0 -2.903447549586195 -4.175305252599235 0.7021061876054269 -2.4925324356584095 -3.485638671415512 -17.195042661064544 -5.963540027744094e-16 4.969616689786745e-17 1.987846675914698e-16
